<?xml version="1.0" encoding="UTF-8" ?>
<!DOCTYPE svg PUBLIC "-//W3C//DTD SVG 1.1//EN" "http://www.w3.org/Graphics/SVG/1.1/DTD/svg11.dtd">
<svg width="1451pt" height="1026pt" viewBox="0 0 1451 1026" version="1.1" xmlns="http://www.w3.org/2000/svg">
<g id="#ffffffff">
<path fill="#ffffff" opacity="1.00" d=" M 0.00 0.00 L 1451.00 0.00 L 1451.00 1026.00 L 0.00 1026.00 L 0.00 0.00 M 85.06 113.06 C 84.93 246.71 85.01 380.36 85.02 514.00 C 85.01 646.98 84.94 779.96 85.06 912.94 C 511.69 913.06 938.33 913.01 1364.96 912.97 C 1365.02 779.98 1365.04 646.99 1364.95 514.00 C 1365.02 380.35 1365.05 246.71 1364.94 113.06 C 938.31 112.96 511.69 112.96 85.06 113.06 Z" />
</g>
<g id="#f4f3f2ff">
<path fill="#f4f3f2" opacity="1.00" d=" M 85.06 113.06 C 511.69 112.96 938.31 112.96 1364.94 113.06 C 1365.05 246.71 1365.02 380.35 1364.95 514.00 C 938.31 514.00 511.67 514.00 85.02 514.00 C 85.01 380.36 84.93 246.71 85.06 113.06 Z" />
</g>
<g id="#d40044ff">
<path fill="#d40044" opacity="1.00" d=" M 85.02 514.00 C 511.67 514.00 938.31 514.00 1364.95 514.00 C 1365.04 646.99 1365.02 779.98 1364.96 912.97 C 938.33 913.01 511.69 913.06 85.06 912.94 C 84.94 779.96 85.01 646.98 85.02 514.00 Z" />
</g>
</svg>
